<?xml version="1.0" encoding="UTF-8" standalone="no"?>
<svg
   height="24"
   viewBox="0 -960 960 960"
   width="24"
   version="1.1"
   id="svg6536"
   sodipodi:docname="access_bus.svg"
   inkscape:version="1.2.2 (b0a8486541, 2022-12-01)"
   xmlns:inkscape="http://www.inkscape.org/namespaces/inkscape"
   xmlns:sodipodi="http://sodipodi.sourceforge.net/DTD/sodipodi-0.dtd"
   xmlns="http://www.w3.org/2000/svg"
   xmlns:svg="http://www.w3.org/2000/svg">
  <defs
     id="defs6540" />
  <sodipodi:namedview
     id="namedview6538"
     pagecolor="#ffffff"
     bordercolor="#999999"
     borderopacity="1"
     inkscape:showpageshadow="0"
     inkscape:pageopacity="0"
     inkscape:pagecheckerboard="0"
     inkscape:deskcolor="#d1d1d1"
     showgrid="false"
     inkscape:zoom="33.375"
     inkscape:cx="12.014981"
     inkscape:cy="12.029963"
     inkscape:current-layer="svg6536" />
  <path
     d="M240-120q-17 0-28.5-11.5T200-160v-82q-18-20-29-44.5T160-340v-380q0-83 77-121.5T480-880q172 0 246 37t74 123v380q0 29-11 53.5T760-242v82q0 17-11.5 28.5T720-120h-40q-17 0-28.5-11.5T640-160v-40H320v40q0 17-11.5 28.5T280-120h-40Zm242-640h224-448 224Zm158 280H240h480-80Zm-400-80h480v-120H240v120Zm100 240q25 0 42.5-17.5T400-380q0-25-17.5-42.5T340-440q-25 0-42.5 17.5T280-380q0 25 17.5 42.5T340-320Zm280 0q25 0 42.5-17.5T680-380q0-25-17.5-42.5T620-440q-25 0-42.5 17.5T560-380q0 25 17.5 42.5T620-320ZM258-760h448q-15-17-64.5-28.5T482-800q-107 0-156.5 12.5T258-760Zm62 480h320q33 0 56.5-23.5T720-360v-120H240v120q0 33 23.5 56.5T320-280Z"
     id="path6534"
     style="fill:#666666;fill-opacity:1;stroke:#666666;stroke-opacity:1" />
</svg>
