<?xml version="1.0" encoding="UTF-8" standalone="no"?>
<!-- Created with Inkscape (http://www.inkscape.org/) -->

<svg
   width="602"
   height="158.33"
   viewBox="0 0 159.27917 41.891478"
   version="1.1"
   id="svg5"
   inkscape:version="1.2.2 (b0a8486541, 2022-12-01)"
   sodipodi:docname="PickUp.svg"
   inkscape:export-filename="Access01.png"
   inkscape:export-xdpi="400"
   inkscape:export-ydpi="400"
   xmlns:inkscape="http://www.inkscape.org/namespaces/inkscape"
   xmlns:sodipodi="http://sodipodi.sourceforge.net/DTD/sodipodi-0.dtd"
   xmlns="http://www.w3.org/2000/svg"
   xmlns:svg="http://www.w3.org/2000/svg">
  <sodipodi:namedview
     id="namedview7"
     pagecolor="#ffffff"
     bordercolor="#999999"
     borderopacity="1"
     inkscape:showpageshadow="false"
     inkscape:pageopacity="0"
     inkscape:pagecheckerboard="false"
     inkscape:deskcolor="#d1d1d1"
     inkscape:document-units="mm"
     showgrid="false"
     showborder="false"
     showguides="true"
     borderlayer="true"
     inkscape:zoom="1.0976967"
     inkscape:cx="278.31002"
     inkscape:cy="157.14723"
     inkscape:current-layer="text113" />
  <defs
     id="defs2" />
  <g
     inkscape:label="Layer 1"
     inkscape:groupmode="layer"
     id="layer1"
     transform="translate(-0.26499999,-0.26458308)">
    <g
       aria-label="Access"
       id="text113"
       style="font-size:44.8193px;line-height:1.25;stroke-width:1.12048">
      <g
         aria-label="PickUp"
         id="text225"
         style="font-size:41.6121px;stroke-width:1.16564">
        <path
           d="m 5.356593,32.11269 h 6.241815 l 2.746398,-8.988213 c 2.122217,1.165138 4.369271,1.706096 6.824385,1.706096 8.114359,0 12.941362,-6.449876 12.941362,-12.442018 0,-6.6579356 -5.867306,-11.85944794 -16.311942,-11.85944794 -11.2352671,0 -17.2690214,6.15859064 -17.2690214,12.98297494 0,2.663174 0.832242,5.451185 2.7880106,7.53179 l 4.3692704,-3.537029 c -0.7074057,-1.206751 -1.248363,-2.829622 -1.248363,-4.535718 0,-3.1625199 1.8309324,-6.574712 7.1156684,-7.6982387 z M 27.535842,12.138883 c 0,3.828313 -2.663175,7.94791 -8.031135,7.94791 -1.289975,0 -2.704787,-0.20806 -3.994762,-0.832242 L 19.837603,5.0648258 c 5.326349,0.7074057 7.698239,3.5370284 7.698239,7.0740572 z"
           style="font-family:'SantElia Script';-inkscape-font-specification:'SantElia Script, Normal'"
           id="path284" />
        <path
           d="m 37.855599,10.89052 -3.911538,12.733302 c -1.456423,4.827003 -0.249672,8.863377 4.618943,8.863377 5.035064,0 8.696929,-4.494107 11.651388,-10.943982 -0.416121,-0.499345 -1.58126,-1.123527 -2.37189,-1.165139 -2.330277,4.743779 -4.577331,7.864687 -6.907608,7.864687 -1.622872,0 -1.872545,-1.414812 -1.331587,-3.204132 L 43.930965,10.89052 Z m 1.289975,-5.9505305 c 0,1.9973808 1.539647,3.5370284 3.537028,3.5370284 2.038993,0 3.578641,-1.5396476 3.578641,-3.5370284 0,-1.9973807 -1.539648,-3.6202526 -3.578641,-3.6202526 -1.997381,0 -3.537028,1.6228719 -3.537028,3.6202526 z"
           style="font-family:'SantElia Script';-inkscape-font-specification:'SantElia Script, Normal'"
           id="path286" />
        <path
           d="m 59.20263,17.922964 c 0,1.872545 1.498036,3.37058 3.37058,3.37058 2.538338,0 3.911537,-2.330277 3.911537,-4.577331 0,-2.996071 -2.413501,-6.200202 -7.615014,-6.200202 -7.448565,0 -12.10912,6.699548 -12.10912,12.89975 0,5.700858 3.911537,9.196274 10.070127,9.196274 7.157281,0 11.901061,-4.785391 14.772295,-11.068818 -0.416121,-0.499345 -1.581259,-1.123527 -2.371889,-1.165139 -2.538338,5.1599 -6.5331,8.031135 -10.486249,8.031135 -3.495416,0 -5.492797,-2.122217 -5.492797,-5.534409 0,-4.077986 2.954459,-7.906299 6.033754,-7.906299 0.499345,0 0.915466,0.08322 1.248363,0.249673 -0.832242,0.624181 -1.331587,1.622872 -1.331587,2.704786 z"
           style="font-family:'SantElia Script';-inkscape-font-specification:'SantElia Script, Normal'"
           id="path288" />
        <path
           d="m 92.450693,20.378078 c -2.37189,4.827004 -4.743779,7.864687 -6.990833,7.864687 -1.830932,0 -2.621562,-1.997381 -2.954459,-3.786701 3.079296,-1.331587 6.824384,-4.494107 6.824384,-8.53048 0,-3.204132 -2.122217,-5.409573 -5.576021,-5.409573 -2.288665,0 -4.618943,1.248363 -6.533099,3.328968 L 80.549633,2.9842209 H 74.474266 L 65.569277,32.11269 h 6.075366 l 4.202822,-13.773605 c 1.456424,-1.830932 3.16252,-2.746398 4.618943,-2.746398 1.539648,0 2.37189,1.040302 2.37189,2.288665 0,2.288666 -2.788011,4.119598 -6.283427,5.243125 1.165139,5.492797 3.120908,9.362722 7.282117,9.362722 4.577331,0 8.031135,-4.494107 10.985594,-10.943982 -0.416121,-0.499345 -1.581259,-1.123527 -2.371889,-1.165139 z"
           style="font-family:'SantElia Script';-inkscape-font-specification:'SantElia Script, Normal'"
           id="path290" />
        <path
           d="m 105.51691,18.131025 c -0.58256,1.997381 -0.91546,3.953149 -0.91546,5.659245 0,5.825694 3.82831,8.946601 9.94529,8.946601 7.44857,0 10.44464,-4.702167 12.69169,-12.067508 L 132.648,2.9842209 h -6.24181 l -5.28474,17.3522451 c -1.33159,4.36927 -3.03768,6.907608 -6.44987,6.907608 -2.62157,0 -4.07799,-1.456423 -4.07799,-3.911537 0,-0.873854 0.20806,-1.955768 0.49935,-2.954459 l 5.32634,-17.3938571 h -4.74377 C 109.38684,2.1519789 107.30623,1.77747 105.39208,1.77747 c -7.240507,0 -11.942674,5.2847366 -11.942674,11.318491 0,3.079295 1.206751,6.283427 3.745089,9.154662 l 4.452495,-3.620253 c -1.45642,-1.997381 -2.205442,-3.953149 -2.205442,-5.992142 0,-3.6618649 2.330282,-6.7827723 6.657932,-6.7827723 0.91547,0 1.91416,0.1664484 2.99608,0.4577331 z"
           style="font-family:'SantElia Script';-inkscape-font-specification:'SantElia Script, Normal'"
           id="path292" />
        <path
           d="m 131.60769,41.891533 4.24444,-13.856829 c 0.87385,2.912847 3.03768,4.452495 5.8673,4.452495 2.95446,0 5.65925,-1.706096 7.69824,-4.286046 4.53572,-0.04161 7.78146,-2.122217 9.86207,-6.657936 -0.41612,-0.499345 -1.58126,-1.123527 -2.37189,-1.165139 -1.16514,2.37189 -3.03768,4.119598 -5.53441,4.702167 0.99869,-2.122217 1.58126,-4.452494 1.58126,-6.74116 0,-5.326348 -3.16252,-7.823074 -6.65794,-7.823074 -2.28866,0 -4.36927,1.165139 -5.8673,2.538338 l 0.66579,-2.163829 h -6.07536 l -9.48756,31.001013 z m 9.77885,-22.928266 c 0,-2.247054 1.08191,-3.620253 2.7464,-3.620253 1.70609,0 2.70478,1.373199 2.70478,3.620253 0,1.872544 -0.7074,3.911537 -1.83093,5.451185 -2.03899,-0.957079 -3.62025,-2.704787 -3.62025,-5.451185 z m -0.6658,8.197583 c -1.66448,0 -3.1209,-1.248363 -3.1209,-3.703477 0,-1.414811 0.45773,-2.954459 1.20675,-4.327658 v 0.08322 c 0,2.788011 1.41481,5.576022 4.07798,7.282118 -0.7074,0.416121 -1.41481,0.665793 -2.16383,0.665793 z"
           style="font-family:'SantElia Script';-inkscape-font-specification:'SantElia Script, Normal'"
           id="path294" />
      </g>
    </g>
  </g>
</svg>
