<?xml version="1.0" encoding="UTF-8" standalone="no"?>
<!-- Created with Inkscape (http://www.inkscape.org/) -->

<svg
   width="602"
   height="149.39648"
   viewBox="0 0 159.27917 39.527821"
   version="1.1"
   id="svg5"
   inkscape:version="1.2.2 (b0a8486541, 2022-12-01)"
   sodipodi:docname="Access.svg"
   inkscape:export-filename="Access01.png"
   inkscape:export-xdpi="400"
   inkscape:export-ydpi="400"
   xmlns:inkscape="http://www.inkscape.org/namespaces/inkscape"
   xmlns:sodipodi="http://sodipodi.sourceforge.net/DTD/sodipodi-0.dtd"
   xmlns="http://www.w3.org/2000/svg"
   xmlns:svg="http://www.w3.org/2000/svg">
  <sodipodi:namedview
     id="namedview7"
     pagecolor="#ffffff"
     bordercolor="#999999"
     borderopacity="1"
     inkscape:showpageshadow="false"
     inkscape:pageopacity="0"
     inkscape:pagecheckerboard="false"
     inkscape:deskcolor="#d1d1d1"
     inkscape:document-units="mm"
     showgrid="false"
     showborder="false"
     showguides="true"
     borderlayer="true"
     inkscape:zoom="1.4530605"
     inkscape:cx="268.39901"
     inkscape:cy="118.02674"
     inkscape:current-layer="text113" />
  <defs
     id="defs2" />
  <g
     inkscape:label="Layer 1"
     inkscape:groupmode="layer"
     id="layer1"
     transform="translate(-0.26499999,-0.26458308)">
    <g
       aria-label="Access"
       id="text113"
       style="font-size:44.8193px;line-height:1.25;stroke-width:1.12048">
      <path
         d="m 6.5801889,13.616402 c 0,-2.061688 0.8515668,-3.8992794 3.1373511,-5.6920514 L 5.9078994,3.3527818 C 2.4119939,5.5041083 0.52958321,9.179291 0.52958321,12.988932 c 0,4.526749 2.64433879,8.874221 8.15711289,10.935909 0,8.560487 4.9301229,13.356152 11.2496449,13.356152 3.899279,0 7.126269,-1.92723 9.725788,-4.885304 -0.986024,5.199039 1.523857,7.529643 5.064581,7.529643 3.137351,0 5.243859,-1.882411 6.364341,-3.22699 l -1.747953,-2.016868 c -0.761928,0.717108 -1.434217,1.030844 -2.061687,1.030844 -1.254941,0 -1.703134,-0.941206 -1.210122,-2.644339 l 6.588438,-21.468446 h -5.064581 c 0.179277,-0.851566 0.313735,-1.7031332 0.313735,-2.5995192 0,-5.3783162 -4.168195,-8.470848 -9.815427,-8.470848 -9.63615,0 -17.076154,9.0983182 -18.9585649,18.6896492 C 7.3869364,17.739778 6.5801889,15.67809 6.5801889,13.616402 Z M 28.810563,6.2212171 c 2.958073,0 4.257833,1.8824107 4.257833,3.9440989 0,4.840484 -7.529642,11.339283 -16.538322,11.339283 H 15.812965 C 16.843809,14.019776 22.849595,6.2212171 28.810563,6.2212171 Z M 16.1267,25.090143 c 7.619281,0 13.983622,-2.958074 17.838082,-7.08145 l -2.151326,6.991811 c -2.196146,3.764822 -5.288678,6.767715 -9.322415,6.767715 -3.585544,0 -6.274702,-2.330604 -6.722895,-6.678076 z"
         style="font-family:'SantElia Script';-inkscape-font-specification:'SantElia Script, Normal'"
         id="path166" />
      <path
         d="m 56.195132,18.905079 c 0,2.016869 1.613495,3.630364 3.630364,3.630364 2.733977,0 4.213014,-2.509881 4.213014,-4.930123 0,-3.22699 -2.599519,-6.678076 -8.201932,-6.678076 -8.022655,0 -13.042417,7.215907 -13.042417,13.893983 0,6.140245 4.213015,9.905066 10.846271,9.905066 7.70892,0 12.818321,-5.15422 15.910852,-11.921934 -0.448193,-0.537832 -1.703133,-1.210121 -2.5547,-1.254941 -2.733977,5.557594 -7.03663,8.650125 -11.294464,8.650125 -3.764821,0 -5.916148,-2.285784 -5.916148,-5.960967 0,-4.392291 3.182171,-8.515667 6.498799,-8.515667 0.537832,0 0.986025,0.08964 1.344579,0.268916 -0.896386,0.672289 -1.434218,1.747953 -1.434218,2.913254 z"
         style="font-family:'SantElia Script';-inkscape-font-specification:'SantElia Script, Normal'"
         id="path168" />
      <path
         d="m 79.232249,18.905079 c 0,2.016869 1.613495,3.630364 3.630364,3.630364 2.733977,0 4.213014,-2.509881 4.213014,-4.930123 0,-3.22699 -2.599519,-6.678076 -8.201932,-6.678076 -8.022655,0 -13.042417,7.215907 -13.042417,13.893983 0,6.140245 4.213015,9.905066 10.846271,9.905066 7.70892,0 12.818321,-5.15422 15.910852,-11.921934 -0.448193,-0.537832 -1.703133,-1.210121 -2.5547,-1.254941 -2.733977,5.557594 -7.03663,8.650125 -11.294464,8.650125 -3.764821,0 -5.916148,-2.285784 -5.916148,-5.960967 0,-4.392291 3.182171,-8.515667 6.498799,-8.515667 0.537832,0 0.986025,0.08964 1.344579,0.268916 -0.896386,0.672289 -1.434218,1.747953 -1.434218,2.913254 z"
         style="font-family:'SantElia Script';-inkscape-font-specification:'SantElia Script, Normal'"
         id="path170" />
      <path
         d="m 113.07083,21.549418 c -2.73398,5.557594 -6.99182,8.650125 -11.29447,8.650125 -3.137349,0 -5.199037,-1.568675 -5.781688,-4.257833 9.949888,0.268916 13.759528,-4.706027 13.759528,-8.605306 0,-3.451086 -3.09253,-6.40916 -8.06748,-6.40916 -7.708917,0 -12.818317,7.081449 -12.818317,13.849164 0,6.185064 4.213014,9.949885 10.846271,9.949885 7.708916,0 12.818316,-5.15422 15.910856,-11.921934 -0.4482,-0.537832 -1.70314,-1.210121 -2.5547,-1.254941 z m -11.47375,-5.064581 c 1.6135,0 2.24097,0.941206 2.24097,1.972049 0,1.97205 -2.42024,4.392292 -7.933017,4.481931 0.493013,-3.540725 2.868436,-6.45398 5.692047,-6.45398 z"
         style="font-family:'SantElia Script';-inkscape-font-specification:'SantElia Script, Normal'"
         id="path172" />
      <path
         d="m 120.6901,34.726293 c 9.18796,0 13.66989,-5.15422 16.76242,-11.921934 -0.44819,-0.537832 -1.70313,-1.210121 -2.5547,-1.254941 -1.65831,3.361448 -3.31663,6.050606 -5.78169,7.798559 0.35856,-1.030844 0.53783,-2.151327 0.53783,-3.316629 0,-5.333496 -4.03373,-9.770607 -5.73687,-15.238562 l -5.24386,-1.165302 c -1.1653,3.540725 -3.13735,8.201932 -4.79566,11.339283 -1.6135,-0.268915 -4.1682,1.030844 -4.1682,4.795666 0,4.526749 4.43712,8.96386 10.98073,8.96386 z m 2.28579,-8.784583 c 0,2.778797 -1.6135,4.48193 -3.89928,4.48193 -1.92723,0 -3.31663,-1.165302 -3.67518,-2.689158 1.07566,-0.62747 1.83759,-1.792772 1.83759,-3.137351 0,-0.896386 -0.35856,-1.703134 -0.89639,-2.330604 1.12048,-2.151326 2.19615,-4.48193 3.13735,-6.812534 1.25494,3.809641 3.49591,7.350366 3.49591,10.487717 z"
         style="font-family:'SantElia Script';-inkscape-font-specification:'SantElia Script, Normal'"
         id="path174" />
      <path
         d="m 142.51708,34.726293 c 9.18795,0 13.66988,-5.15422 16.76241,-11.921934 -0.44819,-0.537832 -1.70313,-1.210121 -2.5547,-1.254941 -1.65831,3.361448 -3.31662,6.050606 -5.78169,7.798559 0.35856,-1.030844 0.53784,-2.151327 0.53784,-3.316629 0,-5.333496 -4.03374,-9.770607 -5.73687,-15.238562 l -5.24386,-1.165302 c -1.1653,3.540725 -3.13735,8.201932 -4.79567,11.339283 -1.61349,-0.268915 -4.16819,1.030844 -4.16819,4.795666 0,4.526749 4.43711,8.96386 10.98073,8.96386 z m 2.28578,-8.784583 c 0,2.778797 -1.61349,4.48193 -3.89928,4.48193 -1.92723,0 -3.31663,-1.165302 -3.67518,-2.689158 1.07566,-0.62747 1.83759,-1.792772 1.83759,-3.137351 0,-0.896386 -0.35855,-1.703134 -0.89639,-2.330604 1.12049,-2.151326 2.19615,-4.48193 3.13735,-6.812534 1.25495,3.809641 3.49591,7.350366 3.49591,10.487717 z"
         style="font-family:'SantElia Script';-inkscape-font-specification:'SantElia Script, Normal'"
         id="path176" />
    </g>
  </g>
</svg>
